<svg width="202" height="62" viewBox="0 0 202 62" fill="none" xmlns="http://www.w3.org/2000/svg">
<rect y="0.015625" width="202" height="61.0973" rx="10" fill="#090914"/>
<path d="M78.476 44.5885L76.6298 40.1427H69.101L67.3027 44.5885H64.7852L71.5467 28.669H74.2561L81.0176 44.5885H78.476ZM72.8414 30.9593L69.9402 38.0994H75.7906L72.8414 30.9593ZM85.2946 48.8546H83.0648V33.7884H85.2467V35.4724C85.5824 34.9036 86.0859 34.4395 86.7572 34.0803C87.4286 33.721 88.2118 33.5414 89.107 33.5414C90.7694 33.5414 92.0642 34.0728 92.9913 35.1356C93.9344 36.1984 94.4059 37.5456 94.4059 39.1772C94.4059 40.8238 93.9184 42.186 92.9433 43.2637C91.9842 44.3415 90.6815 44.8804 89.0351 44.8804C88.1879 44.8804 87.4366 44.7157 86.7812 44.3864C86.1258 44.0571 85.6303 43.638 85.2946 43.129V48.8546ZM92.1041 39.1772C92.1041 38.0845 91.7924 37.1863 91.169 36.4828C90.5616 35.7643 89.7384 35.405 88.6994 35.405C87.6764 35.405 86.8452 35.7643 86.2058 36.4828C85.5824 37.1863 85.2707 38.0845 85.2707 39.1772C85.2707 40.2999 85.5824 41.2205 86.2058 41.939C86.8452 42.6425 87.6764 42.9943 88.6994 42.9943C89.7224 42.9943 90.5456 42.6425 91.169 41.939C91.7924 41.2205 92.1041 40.2999 92.1041 39.1772ZM99.5076 48.8546H97.2778V33.7884H99.4597V35.4724C99.7954 34.9036 100.299 34.4395 100.97 34.0803C101.642 33.721 102.425 33.5414 103.32 33.5414C104.982 33.5414 106.277 34.0728 107.204 35.1356C108.147 36.1984 108.619 37.5456 108.619 39.1772C108.619 40.8238 108.131 42.186 107.156 43.2637C106.197 44.3415 104.894 44.8804 103.248 44.8804C102.401 44.8804 101.65 44.7157 100.994 44.3864C100.339 44.0571 99.8433 43.638 99.5076 43.129V48.8546ZM106.317 39.1772C106.317 38.0845 106.005 37.1863 105.382 36.4828C104.775 35.7643 103.951 35.405 102.912 35.405C101.889 35.405 101.058 35.7643 100.419 36.4828C99.7954 37.1863 99.4837 38.0845 99.4837 39.1772C99.4837 40.2999 99.7954 41.2205 100.419 41.939C101.058 42.6425 101.889 42.9943 102.912 42.9943C103.935 42.9943 104.759 42.6425 105.382 41.939C106.005 41.2205 106.317 40.2999 106.317 39.1772ZM128.563 32.284L126.453 32.9801C126.341 32.2915 125.981 31.6703 125.374 31.1164C124.767 30.5476 123.927 30.2632 122.856 30.2632C121.913 30.2632 121.13 30.5177 120.507 31.0266C119.883 31.5356 119.571 32.1643 119.571 32.9127C119.571 33.4965 119.755 33.9905 120.122 34.3946C120.507 34.7988 121.05 35.0757 121.753 35.2254L124.295 35.7418C125.702 36.0262 126.789 36.5651 127.556 37.3585C128.323 38.1369 128.707 39.0874 128.707 40.2101C128.707 41.4974 128.163 42.6051 127.076 43.5332C125.989 44.4612 124.575 44.9253 122.832 44.9253C120.93 44.9253 119.435 44.4612 118.348 43.5332C117.277 42.5901 116.654 41.4749 116.478 40.1876L118.732 39.514C118.828 40.472 119.227 41.2803 119.931 41.939C120.634 42.5976 121.594 42.9269 122.808 42.9269C123.927 42.9269 124.791 42.6874 125.398 42.2084C126.005 41.7294 126.309 41.1232 126.309 40.3897C126.309 39.7909 126.093 39.2745 125.662 38.8404C125.23 38.3913 124.599 38.0845 123.767 37.9198L121.346 37.4258C120.082 37.1714 119.075 36.6699 118.324 35.9215C117.573 35.173 117.197 34.2225 117.197 33.0699C117.197 31.8125 117.741 30.7123 118.828 29.7692C119.931 28.8112 121.258 28.3322 122.808 28.3322C124.551 28.3322 125.885 28.7289 126.813 29.5222C127.74 30.3156 128.323 31.2362 128.563 32.284ZM134.485 30.3755V33.7884H136.979V35.6969H134.485V41.3103C134.485 41.8192 134.605 42.1935 134.845 42.433C135.101 42.6725 135.516 42.7922 136.092 42.7922C136.427 42.7922 136.723 42.7623 136.979 42.7024V44.4987C136.595 44.6334 136.084 44.7007 135.444 44.7007C134.453 44.7007 133.67 44.4313 133.095 43.8924C132.519 43.3535 132.231 42.5976 132.231 41.6246V35.6969H130.025V33.7884H130.649C131.24 33.7884 131.68 33.6387 131.968 33.3393C132.271 33.025 132.423 32.6208 132.423 32.1268V30.3755H134.485ZM142.243 42.0288C142.947 42.7024 143.802 43.0392 144.809 43.0392C145.816 43.0392 146.663 42.7024 147.351 42.0288C148.054 41.3402 148.406 40.3897 148.406 39.1772C148.406 37.9797 148.054 37.0441 147.351 36.3705C146.663 35.682 145.816 35.3377 144.809 35.3377C143.802 35.3377 142.947 35.682 142.243 36.3705C141.556 37.0441 141.212 37.9797 141.212 39.1772C141.212 40.3897 141.556 41.3402 142.243 42.0288ZM140.565 35.0907C141.684 33.998 143.099 33.4516 144.809 33.4516C146.519 33.4516 147.926 33.998 149.029 35.0907C150.148 36.1685 150.707 37.5306 150.707 39.1772C150.707 40.8388 150.156 42.2159 149.053 43.3086C147.95 44.3864 146.535 44.9253 144.809 44.9253C143.083 44.9253 141.668 44.3864 140.565 43.3086C139.462 42.2159 138.911 40.8388 138.911 39.1772C138.911 37.5306 139.462 36.1685 140.565 35.0907ZM159.993 33.6761V35.9215C159.658 35.8766 159.33 35.8541 159.01 35.8541C156.9 35.8541 155.845 36.9618 155.845 39.1772V44.5885H153.591V33.7884H155.797V35.6745C156.501 34.2973 157.652 33.6088 159.25 33.6088C159.506 33.6088 159.754 33.6312 159.993 33.6761ZM163.741 38.077H170.047C170.015 37.2687 169.727 36.61 169.183 36.1011C168.64 35.5772 167.873 35.3152 166.882 35.3152C165.986 35.3152 165.251 35.5921 164.676 36.146C164.1 36.6849 163.789 37.3285 163.741 38.077ZM170.382 40.8837L172.324 41.5124C171.989 42.5153 171.365 43.3386 170.454 43.9822C169.543 44.6109 168.44 44.9253 167.145 44.9253C165.531 44.9253 164.156 44.4089 163.021 43.376C161.902 42.3282 161.343 40.9211 161.343 39.1548C161.343 37.5082 161.886 36.146 162.973 35.0682C164.06 33.9905 165.355 33.4516 166.858 33.4516C168.6 33.4516 169.959 33.968 170.934 35.0009C171.909 36.0188 172.396 37.3884 172.396 39.1098C172.396 39.3793 172.38 39.6038 172.348 39.7835H163.669C163.685 40.7415 164.02 41.5273 164.676 42.1411C165.347 42.7548 166.17 43.0616 167.145 43.0616C168.792 43.0616 169.871 42.3357 170.382 40.8837Z" fill="white"/>
<path opacity="0.7" d="M66.5457 18.9027V15.0279H67.5595C68.6191 15.0279 69.496 15.6523 69.496 16.9695C69.496 18.2868 68.61 18.9027 67.5504 18.9027H66.5457ZM67.5961 19.9976C69.4412 19.9976 70.8022 18.8856 70.8022 16.9695C70.8022 15.0535 69.4503 13.933 67.6052 13.933H65.2852V19.9976H67.5961ZM73.9592 16.961C73.9592 15.5924 74.9823 14.9423 75.9779 14.9423C76.9826 14.9423 78.0057 15.5924 78.0057 16.961C78.0057 18.3296 76.9826 18.9797 75.9779 18.9797C74.9823 18.9797 73.9592 18.3296 73.9592 16.961ZM72.6531 16.9695C72.6531 18.9198 74.2241 20.1259 75.9779 20.1259C77.7408 20.1259 79.3118 18.9198 79.3118 16.9695C79.3118 15.0108 77.7408 13.8047 75.9779 13.8047C74.2241 13.8047 72.6531 15.0108 72.6531 16.9695ZM87.4065 18.1243L85.9633 13.933H84.6571L83.2231 18.1072L82.0356 13.933H80.702L82.5015 19.9976H83.8168L85.2965 15.6779L86.7762 19.9976H88.0733L89.8635 13.933H88.5756L87.4065 18.1243ZM97.384 19.9976V13.933H96.1235V17.9447L93.4289 13.933H91.8579V19.9976H93.1184V15.6951L96.0595 19.9976H97.384ZM104.149 19.9976V18.8685H101.262V13.933H100.002V19.9976H104.149ZM106.963 16.961C106.963 15.5924 107.986 14.9423 108.982 14.9423C109.987 14.9423 111.01 15.5924 111.01 16.961C111.01 18.3296 109.987 18.9797 108.982 18.9797C107.986 18.9797 106.963 18.3296 106.963 16.961ZM105.657 16.9695C105.657 18.9198 107.228 20.1259 108.982 20.1259C110.745 20.1259 112.316 18.9198 112.316 16.9695C112.316 15.0108 110.745 13.8047 108.982 13.8047C107.228 13.8047 105.657 15.0108 105.657 16.9695ZM118.632 19.9976H120.002L117.536 13.933H116.074L113.59 19.9976H114.923L115.462 18.6119H118.093L118.632 19.9976ZM116.778 15.2417L117.673 17.5341H115.882L116.778 15.2417ZM123.232 18.9027V15.0279H124.246C125.305 15.0279 126.182 15.6523 126.182 16.9695C126.182 18.2868 125.296 18.9027 124.237 18.9027H123.232ZM124.282 19.9976C126.127 19.9976 127.488 18.8856 127.488 16.9695C127.488 15.0535 126.137 13.933 124.291 13.933H121.971V19.9976H124.282ZM134.044 16.961C134.044 15.5924 135.067 14.9423 136.063 14.9423C137.068 14.9423 138.091 15.5924 138.091 16.961C138.091 18.3296 137.068 18.9797 136.063 18.9797C135.067 18.9797 134.044 18.3296 134.044 16.961ZM132.738 16.9695C132.738 18.9198 134.309 20.1259 136.063 20.1259C137.826 20.1259 139.397 18.9198 139.397 16.9695C139.397 15.0108 137.826 13.8047 136.063 13.8047C134.309 13.8047 132.738 15.0108 132.738 16.9695ZM147.158 19.9976V13.933H145.897V17.9447L143.202 13.933H141.631V19.9976H142.892V15.6951L145.833 19.9976H147.158ZM157.943 15.0535V13.933H152.581V15.0535H154.627V19.9976H155.897V15.0535H157.943ZM165.324 19.9976V13.933H164.054V16.3708H161.232V13.933H159.972V19.9976H161.232V17.4828H164.054V19.9976H165.324ZM172.001 19.9976V18.8856H169.206V17.4828H171.736V16.4307H169.206V15.045H172.001V13.933H167.946V19.9976H172.001Z" fill="white"/>
<path d="M49.5588 38.1946C48.8173 39.7323 48.4634 40.4186 47.5086 41.7771C46.1785 43.6743 44.3016 46.0373 41.976 46.0573C39.9102 46.0753 39.3793 44.7983 36.5748 44.8137C33.7704 44.8291 33.1859 46.08 31.12 46.062C28.7943 46.0426 27.0175 43.9088 25.6859 42.0103C21.9637 36.7044 21.5749 30.4782 23.8705 27.1684C25.5018 24.8148 28.0765 23.4395 30.4964 23.4395C32.9604 23.4395 34.5097 24.7045 36.5477 24.7045C38.5243 24.7045 39.7282 23.4375 42.5776 23.4375C44.7313 23.4375 47.0133 24.5355 48.6397 26.4326C43.3112 29.1664 44.1775 36.2894 49.5588 38.1946Z" fill="white"/>
<path d="M40.7159 20.1118C41.7512 18.8675 42.5362 17.112 42.2508 15.3164C40.5596 15.4247 38.5829 16.4324 37.4283 17.7455C36.3801 18.9371 35.5144 20.7046 35.8512 22.4226C37.6959 22.4768 39.6062 21.4443 40.7159 20.1118Z" fill="white"/>
</svg>
